<?xml version="1.0" encoding="utf-8"?>
<!-- Generator: Adobe Illustrator 25.2.0, SVG Export Plug-In . SVG Version: 6.00 Build 0)  -->
<svg version="1.1" id="Layer_1" xmlns="http://www.w3.org/2000/svg" xmlns:xlink="http://www.w3.org/1999/xlink" x="0px" y="0px"
	 viewBox="0 0 64 64" style="enable-background:new 0 0 64 64;" xml:space="preserve">
<style type="text/css">
	.st0{fill:#134563;}
</style>
<path id="Fill-43" class="st0" d="M32,55.4C19.1,55.4,8.6,44.9,8.6,32S19.1,8.6,32,8.6S55.4,19.1,55.4,32S44.9,55.4,32,55.4L32,55.4
	z M32,11.1c-11.5,0-20.9,9.4-20.9,20.9S20.5,52.9,32,52.9S52.9,43.5,52.9,32S43.5,11.1,32,11.1L32,11.1z"/>
<path id="Fill-44" class="st0" d="M29.2,42.1l-11.9-12l1.8-1.8l10.1,10.2c0,0,14.5-15.3,15.7-15.7s1.8,1.8,1.8,1.8L29.2,42.1"/>
</svg>
